<?xml version="1.0" encoding="UTF-8"?>
<svg id="wh-word-light" xmlns="http://www.w3.org/2000/svg" viewBox="0 0 3291.22 600">
  <defs>
    <style>
      .cls-1 {
        fill: none;
      }

      .cls-2 {
        fill: #fff;
      }
    </style>
  </defs>
  <rect class="cls-1" x="-738.38" y="21.42" width="4776.33" height="557.16"/>
  <path class="cls-2" d="M359.47,580.14c-1.98,0-3.96-.74-5.94-2.23-1.98-1.48-3.47-4.71-4.45-9.65l-57.13-230.02c-.5-3.95-1.98-5.81-4.45-5.56-2.48.26-4.21,2.11-5.19,5.56l-63.81,230.02c-1.48,4.94-3.1,8.16-4.82,9.65-1.74,1.48-3.59,2.23-5.57,2.23s-4.08-.74-6.31-2.23c-2.23-1.48-3.84-4.71-4.82-9.65L79.74,97.84c-3.47-13.84-7.3-23.49-11.5-28.94-4.21-5.44-11.26-9.15-21.15-11.13l-11.13-2.23c-6.92-1.48-10.39-4.7-10.39-9.65s3.71-7.42,11.13-7.42h119.46c6.92,0,10.39,2.72,10.39,8.16,0,4.45-3.71,7.42-11.13,8.9l-8.16,1.48c-8.42,1.48-13.73,4.34-15.95,8.53-2.23,4.21-2.11,11.76.37,22.63l87.56,362.1c.98,3.47,2.6,5.19,4.82,5.19s3.83-1.73,4.82-5.19l33.39-120.95c5.44-18.79,8.16-36.1,8.16-51.94s-2.48-33.39-7.42-52.68l-31.16-126.88c-3.47-13.84-6.81-23.74-10.02-29.68-3.22-5.94-7.55-9.39-12.98-10.39l-11.13-2.23c-6.93-1.48-10.39-4.7-10.39-9.65s3.71-7.42,11.13-7.42h101.65c6.92,0,10.39,2.72,10.39,8.16,0,4.45-3.71,7.42-11.13,8.9l-8.16,1.48c-6.43,1-10.27,3.71-11.5,8.16-1.24,4.45-.63,12.13,1.85,23l25.23,106.11c.99,3.47,2.6,5.19,4.82,5.19s3.83-1.73,4.82-5.19l26.71-90.52c5.44-18.79,7.54-31.16,6.31-37.1-1.24-5.94-4.08-9.15-8.53-9.65l-8.16-1.48c-7.42-1.48-11.13-4.45-11.13-8.9,0-5.44,3.45-8.16,10.39-8.16h70.49c8.41,0,12.61,2.72,12.61,8.16,0,4.95-4.21,7.92-12.61,8.9l-8.16.74c-6.43.5-11.76,4.45-15.95,11.87-4.21,7.42-8.79,19.55-13.73,36.36l-28.2,97.2c-5.45,18.31-8.29,35.5-8.53,51.57-.25,16.08,1.85,33.76,6.31,53.05l33.39,139.5c.99,3.47,2.6,5.19,4.82,5.19s3.58-1.73,4.08-5.19l85.33-342.06c6.92-28.68,2.47-44.27-13.36-46.75l-8.16-1.48c-7.42-1.48-11.13-4.7-11.13-9.65s3.46-7.42,10.39-7.42h83.1c8.41,0,12.61,2.72,12.61,8.16,0,4.95-4.21,7.92-12.61,8.9l-8.16.74c-6.43.5-12,4.34-16.7,11.5-4.71,7.18-9.03,19.42-12.99,36.73l-115.01,463.75c-1,4.94-2.48,8.16-4.45,9.65-1.98,1.48-3.96,2.23-5.94,2.23Z"/>
  <path class="cls-2" d="M570.94,579.4c-20.78,0-37.84-6.56-51.2-19.66-13.36-13.1-20.03-30.54-20.03-52.31s6.68-41.42,20.03-60.47c13.36-19.04,31.65-36.23,54.91-51.57,23.25-15.33,49.71-27.7,79.39-37.1,6.42-1.97,9.65-6.18,9.65-12.61v-67.52c0-23.74-3.71-40.68-11.13-50.83-7.42-10.13-17.56-15.21-30.42-15.21s-23.63,5.56-33.76,16.69c-10.14,11.13-17.44,29.81-21.89,56.02-2.48,15.84-7.79,27.34-15.95,34.5-8.16,7.18-16.45,10.76-24.86,10.76-13.85,0-20.78-6.92-20.78-20.78s4.08-28.57,12.24-42.67c8.16-14.1,18.92-26.96,32.28-38.58,13.36-11.62,27.94-20.89,43.78-27.82,15.83-6.92,31.65-10.39,47.49-10.39,48.97,0,73.46,28.45,73.46,85.33v227.05c0,20.78,5.19,31.16,15.58,31.16,6.42,0,12.36-4.32,17.81-12.98,5.44-8.65,8.16-23.37,8.16-44.15,0-7.91,3.21-11.87,9.65-11.87,5.94,0,8.9,4.21,8.9,12.61,0,36.11-6.31,62.21-18.92,78.28-12.61,16.08-26.84,24.12-42.66,24.12-11.87,0-21.28-4.82-28.2-14.47-6.93-9.65-11.63-21.15-14.1-34.5-.5-4.94-2.6-7.54-6.31-7.79-3.71-.24-7.3,2.11-10.76,7.05-11.87,16.32-24,28.69-36.36,37.1-12.37,8.41-27.71,12.61-46,12.61ZM590.98,545.27c12.86,0,24.73-4.57,35.62-13.73,10.88-9.15,19.78-21.39,26.71-36.73,6.92-15.33,10.39-32.65,10.39-51.94v-54.17c0-9.39-5.19-12.12-15.58-8.16-30.18,10.89-53.55,25.85-70.12,44.89-16.58,19.05-24.86,41.92-24.86,68.64,0,34.13,12.61,51.2,37.84,51.2Z"/>
  <path class="cls-2" d="M792.79,572.72c-5.94,0-8.9-2.71-8.9-8.16,0-4.94,2.71-7.91,8.16-8.9l10.39-1.48c10.39-1.48,18.05-4.45,23-8.9,4.94-4.45,7.42-11.87,7.42-22.26V97.84c0-8.9-1.37-15.08-4.08-18.55-2.72-3.45-7.55-5.44-14.47-5.94l-17.07-2.23c-5.45-.99-8.16-3.95-8.16-8.9s2.71-7.91,8.16-8.9c13.84-2.97,25.71-6.42,35.62-10.39,9.89-3.95,18.05-7.91,24.49-11.87,7.91-4.94,13.84-7.42,17.81-7.42,5.44,0,8.16,3.97,8.16,11.87v487.49c0,10.39,1.6,17.69,4.82,21.89,3.21,4.21,10.02,7.05,20.41,8.53l17.07,2.23c5.44,1,8.16,3.96,8.16,8.9,0,5.45-2.97,8.16-8.9,8.16h-132.08Z"/>
  <path class="cls-2" d="M961.22,572.72c-5.94,0-8.9-2.71-8.9-8.16,0-4.94,2.71-7.91,8.16-8.9l10.39-1.48c10.39-1.48,17.18-4.45,20.41-8.9,3.21-4.45,4.82-11.87,4.82-22.26V97.84c0-8.9-1.37-14.96-4.08-18.18-2.72-3.21-7.55-5.31-14.47-6.31l-15.58-2.23c-5.45-.99-8.16-3.95-8.16-8.9s2.71-7.91,8.16-8.9c13.84-2.97,25.47-6.42,34.88-10.39,9.39-3.95,17.31-7.91,23.74-11.87,7.91-4.94,13.84-7.42,17.81-7.42,5.44,0,8.16,3.97,8.16,11.87v310.9c0,4.95,2.1,8.05,6.31,9.27,4.2,1.24,8.28-.37,12.24-4.82l86.81-93.49c10.39-11.37,14.71-20.89,12.98-28.57-1.74-7.66-7.55-12.49-17.44-14.47l-17.07-2.97c-6.43-1.48-9.65-4.7-9.65-9.65s3.46-7.42,10.39-7.42h127.62c6.92,0,10.39,2.72,10.39,8.16s-3.22,8.42-9.65,8.9l-6.68.74c-11.39,1-22.76,5.32-34.13,12.98-11.38,7.67-24.98,19.66-40.81,35.99l-46,48.97c-10.39,11.39-12.87,22.52-7.42,33.39l93.49,179.56c5.44,9.9,11.37,17.07,17.81,21.52,6.42,4.45,14.34,7.67,23.74,9.65l7.42,1.48c5.94,1.48,8.9,4.45,8.9,8.9,0,5.45-3.47,8.16-10.39,8.16h-129.11c-6.93,0-10.39-2.71-10.39-8.16,0-4.94,3.21-7.91,9.65-8.9l12.61-1.48c18.79-2.47,22.75-14.58,11.87-36.36l-70.49-137.27c-2.48-4.94-6.06-7.66-10.76-8.16-4.71-.49-9.03,1.24-12.98,5.19l-8.16,8.16c-4.45,4.45-7.42,8.9-8.9,13.36s-2.23,9.4-2.23,14.84v109.07c0,10.39,1.6,17.81,4.82,22.26,3.21,4.45,10.02,7.18,20.4,8.16l20.03,2.23c5.44,1,8.16,3.96,8.16,8.9,0,5.45-2.97,8.16-8.9,8.16h-129.85Z"/>
  <path class="cls-2" d="M1394.54,579.4c-23.74,0-45.02-7.91-63.81-23.74-18.8-15.83-33.76-38.21-44.89-67.15-11.13-28.94-16.7-62.44-16.7-100.54s5.68-73.46,17.07-103.14c11.37-29.68,26.96-52.93,46.75-69.75,19.78-16.81,41.79-25.23,66.04-25.23,29.18,0,52.8,12,70.86,35.99,18.05,24,27.08,62.95,27.08,116.86,0,16.32-6.19,24.49-18.55,24.49h-140.98c-9.9,0-14.84,5.69-14.84,17.07,0,52.44,7.66,91.76,23,117.98,15.33,26.23,34.88,39.33,58.62,39.33,18.79,0,34.13-6.68,46-20.03,11.87-13.36,21.52-35.86,28.94-67.52,1.48-5.44,4.7-8.16,9.65-8.16,5.94,0,8.16,4.95,6.68,14.84-7.92,44.03-20.53,74.83-37.84,92.38-17.32,17.56-38.34,26.34-63.07,26.34ZM1335.18,348.64h74.94c23.74,0,35.62-12.36,35.62-37.1,0-32.15-3.96-57.38-11.87-75.68-7.92-18.29-19.79-27.45-35.62-27.45-19.29,0-35.5,11.13-48.6,33.39-13.11,22.26-21.65,53.92-25.6,94.98-1,7.92,2.71,11.87,11.13,11.87Z"/>
  <path class="cls-2" d="M1629.75,241.79c20.28-34.62,44.76-51.94,73.46-51.94,16.32,0,28.44,4.82,36.36,14.47,7.91,9.65,11.87,20.4,11.87,32.28,0,9.4-2.35,17.07-7.05,23-4.71,5.94-12,8.9-21.89,8.9-7.92,0-13.73-1.85-17.44-5.56s-6.68-8.03-8.9-12.98c-2.23-4.94-4.82-9.27-7.79-12.98-2.97-3.71-7.92-5.56-14.84-5.56-8.9,0-17.32,5.32-25.23,15.95-7.92,10.64-14.47,24.86-19.66,42.67-5.19,17.81-7.79,38.1-7.79,60.84v172.14c0,10.39,1.6,17.81,4.82,22.26,3.21,4.45,10.02,7.18,20.41,8.16l20.03,2.23c5.44,1,8.16,3.71,8.16,8.16,0,5.94-3.71,8.9-11.13,8.9h-125.4c-7.42,0-11.13-2.71-11.13-8.16,0-4.45,3.21-7.42,9.65-8.9l8.9-1.48c10.39-1.97,17.18-5.07,20.4-9.28,3.21-4.2,4.82-11.5,4.82-21.89v-249.31c0-8.9-1.37-14.96-4.08-18.18-2.72-3.21-7.55-5.31-14.47-6.31l-15.58-2.23c-6.44-.49-9.65-3.21-9.65-8.16,0-3.95,3.95-6.68,11.87-8.16,15.33-2.47,27.08-6.42,35.25-11.87,8.16-5.44,16.7-12.12,25.6-20.03,4.45-4.45,8.16-6.68,11.13-6.68,4.45,0,6.68,2.97,6.68,8.9v40.07c0,3.47,1.48,5.56,4.45,6.31,2.97.74,5.68-1.11,8.16-5.56Z"/>
  <path class="cls-2" d="M1735.11,572.72c-6.92,0-10.39-2.47-10.39-7.42,0-5.44,4.95-8.9,14.84-10.39l14.84-2.23c10.88-1.48,18.42-4.08,22.63-7.79,4.2-3.71,7.29-10.76,9.28-21.15l100.91-436.3c2.47-10.39,2.47-17.31,0-20.78-2.48-3.46-8.66-6.18-18.55-8.16l-14.84-2.97c-6.43-1.48-9.65-4.2-9.65-8.16,0-5.94,4.45-8.9,13.36-8.9h133.56c6.92,0,10.39,2.72,10.39,8.16s-4.45,8.66-13.36,9.65l-17.81,2.23c-10.89,1.48-18.31,4.21-22.26,8.16-3.96,3.96-7.18,11.13-9.65,21.52l-43.04,186.24c-1.48,6.93,1.23,10.39,8.16,10.39h146.92c6.92,0,11.13-3.46,12.61-10.39l43.04-186.24c2.47-10.39,2.47-17.55,0-21.52-2.48-3.95-8.66-6.68-18.55-8.16l-16.32-2.23c-6.93-.49-10.39-3.45-10.39-8.9,0-5.94,4.7-8.9,14.1-8.9h133.56c6.92,0,10.39,2.48,10.39,7.42,0,5.45-4.95,8.9-14.84,10.39l-14.84,2.23c-10.89,1.48-18.31,4.08-22.26,7.79-3.97,3.71-7.18,10.76-9.65,21.15l-100.91,436.3c-1.98,10.39-1.86,17.32.37,20.78,2.23,3.47,8.28,6.19,18.18,8.16l14.84,2.97c6.42,1.48,9.65,4.21,9.65,8.16,0,5.94-4.45,8.9-13.36,8.9h-133.56c-6.93,0-10.39-2.71-10.39-8.16s4.45-8.65,13.36-9.65l17.81-2.23c10.88-1.48,18.42-4.2,22.63-8.16,4.2-3.95,7.29-11.13,9.28-21.52l47.49-205.53c1.48-6.92-1-10.39-7.42-10.39h-146.92c-7.42,0-11.87,3.47-13.36,10.39l-47.49,205.53c-1.98,10.39-1.85,17.56.37,21.52,2.23,3.96,8.28,6.68,18.18,8.16l16.32,2.23c6.92.5,10.39,3.47,10.39,8.9,0,5.94-4.71,8.9-14.1,8.9h-133.56Z"/>
  <path class="cls-2" d="M2256.74,579.4c-30.68,0-54.91-12.73-72.72-38.21-17.81-25.47-26.71-59.97-26.71-103.51,0-32.15,5.19-63.07,15.58-92.75,10.39-29.68,24.12-56.14,41.18-79.39,17.07-23.25,36.1-41.67,57.13-55.28,21.02-13.6,42.17-20.41,63.44-20.41,30.67,0,54.91,12.61,72.72,37.84,17.81,25.23,26.71,59.86,26.71,103.88,0,32.16-5.19,63.07-15.58,92.75-10.39,29.68-24.11,56.15-41.18,79.39-17.07,23.26-36.11,41.68-57.13,55.28-21.03,13.61-42.18,20.41-63.44,20.41ZM2255.25,561.59c15.83,0,31.28-7.66,46.38-23,15.08-15.33,28.81-35.62,41.18-60.84,12.36-25.23,22.26-53.3,29.68-84.22,7.42-30.91,11.13-61.96,11.13-93.12,0-61.83-16.08-92.75-48.23-92.75-15.34,0-30.68,7.55-46,22.63-15.34,15.1-29.07,35.25-41.18,60.47-12.13,25.23-21.89,53.31-29.31,84.22-7.42,30.92-11.13,61.96-11.13,93.12,0,62.33,15.83,93.49,47.49,93.49Z"/>
  <path class="cls-2" d="M2888.17,579.4c-17.81,0-31.16-7.42-40.07-22.26-8.9-14.84-9.4-37.84-1.48-69.01l57.13-215.18c5.44-19.29,6.31-32.65,2.6-40.07s-9.03-11.13-15.95-11.13c-9.9,0-21.27,6.81-34.13,20.4-12.87,13.61-26.34,32.03-40.44,55.28-14.1,23.26-27.83,49.71-41.18,79.39-13.36,29.68-25.73,60.6-37.1,92.75-11.39,32.16-20.78,63.81-28.2,94.98-1.48,5.45-4.95,8.16-10.39,8.16h-28.94c-6.93,0-9.65-3.21-8.16-9.65l68.26-290.12c4.45-19.29,5.07-32.65,1.85-40.07-3.22-7.42-8.29-11.13-15.21-11.13-9.4,0-20.53,6.81-33.39,20.4-12.87,13.61-26.23,32.03-40.07,55.28-13.85,23.26-27.45,49.71-40.81,79.39-13.36,29.68-25.73,60.6-37.1,92.75-11.38,32.16-20.53,63.81-27.45,94.98-1.48,5.45-4.95,8.16-10.39,8.16h-30.42c-6.93,0-9.65-3.21-8.16-9.65l70.49-296.06c2.47-10.88,2.84-19.41,1.11-25.6-1.74-6.18-6.31-9.28-13.73-9.28-8.9,0-18.68,6.56-29.31,19.66-10.64,13.11-22.63,37.97-35.99,74.57-1.98,6.43-5.45,9.65-10.39,9.65-7.42,0-9.4-4.45-5.94-13.36,10.88-34.13,22.38-60.84,34.5-80.14,12.12-19.29,24.36-32.89,36.73-40.81,12.36-7.91,23.74-11.87,34.13-11.87,16.32,0,27.94,6.06,34.88,18.18,6.92,12.13,7.16,32.03.74,59.73l-18.55,80.14c-.5,3.47.24,5.45,2.23,5.94,1.97.5,3.71-.74,5.19-3.71,28.68-59.36,54.65-100.91,77.91-124.66,23.25-23.74,44.52-35.62,63.81-35.62,18.29,0,31.28,7.42,38.96,22.26,7.66,14.84,8.03,37.6,1.11,68.26l-15.58,67.52c-.5,3.47.24,5.45,2.23,5.94,1.97.5,3.71-.74,5.19-3.71,18.79-40.07,36.47-71.85,53.05-95.35,16.57-23.49,32.28-40.18,47.12-50.09,14.84-9.89,28.68-14.84,41.55-14.84,18.29,0,31.65,7.42,40.07,22.26,8.41,14.84,8.41,37.6,0,68.26l-56.39,215.18c-3.47,13.85-3.71,24.24-.74,31.16,2.97,6.93,8.41,10.39,16.32,10.39,9.89,0,19.66-6.55,29.31-19.66,9.65-13.1,19.66-37.96,30.05-74.57,1.48-5.44,4.7-8.16,9.65-8.16,3.95,0,6.31,1.48,7.05,4.45.74,2.97.61,6.43-.37,10.39-9.4,33.65-19.55,59.99-30.42,79.02-10.89,19.05-21.89,32.28-33.02,39.7-11.13,7.42-22.39,11.13-33.76,11.13Z"/>
  <path class="cls-2" d="M3098.15,579.4c-26.22,0-47.24-10.26-63.07-30.79-15.84-20.52-23.74-49.59-23.74-87.18,0-32.65,5.81-65.04,17.44-97.2,11.62-32.15,26.83-61.33,45.63-87.56,18.79-26.21,39.44-47.23,61.96-63.07,22.5-15.83,44.39-23.74,65.67-23.74,23.24,0,39.94,5.56,50.08,16.7,10.13,11.13,15.21,26.1,15.21,44.89,0,22.26-7.79,44.4-23.37,66.41-15.58,22.02-37.35,41.68-65.29,58.99-27.95,17.32-60.73,30.18-98.32,38.58-10.89,2.48-16.58,8.66-17.07,18.55-.5,3.47-.74,7.05-.74,10.76v10.76c0,28.2,4.82,49.47,14.47,63.81,9.65,14.35,22.87,21.52,39.7,21.52,18.79,0,36.97-8.65,54.54-25.97,17.55-17.31,32.28-41.8,44.15-73.46,1.48-4.45,4.45-6.68,8.9-6.68,2.97,0,4.82,1.24,5.56,3.71.74,2.48.62,5.45-.37,8.9-15.84,43.53-35,76.43-57.5,98.69-22.51,22.26-47.12,33.39-73.83,33.39ZM3070.7,387.22c-1,3.47-.37,6.31,1.85,8.53,2.23,2.23,5.07,2.85,8.53,1.85,30.67-8.41,56.39-21.15,77.17-38.21,20.78-17.07,36.47-36.23,47.12-57.5,10.63-21.26,15.95-42.04,15.95-62.33s-8.16-31.16-24.49-31.16c-14.35,0-29.93,8.42-46.75,25.23-16.82,16.82-32.41,38.84-46.75,66.04-14.35,27.21-25.23,56.39-32.65,87.56Z"/>
</svg>