<?xml version="1.0" encoding="UTF-8"?>
<svg id="wh-logo-light" xmlns="http://www.w3.org/2000/svg" viewBox="0 0 1227.39 1215.13">
  <defs>
    <style>
      .cls-1 {
        fill: #fff;
        fill-rule: evenodd;
      }
    </style>
  </defs>
  <path class="cls-1" d="M499.66,47.59c66.84,12.5,111.45,49.19,151.88,92.95,108.46,117.4,217.12,234.65,325.88,351.8,15.56,16.74,30.68,32.49,56.41,36.19,22.84,3.28,31.16,20.84,29.93,45.2-5.22,102.07-11.14,204.16-14.82,306.29-1.52,42.06,3.89,84.34,2.87,126.43-2.82,115.58-3.14,91.63-102.18,105.94-17.49,2.53-35.81-1.6-53.6-.4-45.86,3.03-91.62,7.84-137.48,10.96-37.61,2.56-68.41-9.7-84.66-46.13-4.43-9.96-6.95-21.85-6.5-32.72,1.86-45.89,5.22-91.73,7.94-137.6.54-8.8.67-17.62,1.04-27.87-31.07-11.12-61.7-6.39-91.7-5.95-16.6.26-22.97,14.01-24.46,29.42-2.99,30.52-6.31,61-8.82,91.54-2.63,31.66-7.67,63.51,12.88,92.45,4.75,6.71,4.42,17.08,6.29,25.82,4.9,22.82-3.39,37.76-25.85,41.73-13.54,2.4-28.23,2.98-41.65.43-31.95-6.08-63.1-6.61-94.98.91-22.31,5.23-45.44,7.33-68.31,9.81-53.01,5.75-99.69-11.86-144.52-38.37-32.01-18.94-23.66-51.28-28.31-78.64-3.75-22.07-.98-45.22-1.46-67.87-2.54-121.31-5.28-242.52,19.14-362.55,4.9-24.11,10.85-48.98,4.26-74.83-7.35-28.83,12.55-51.86,23.53-75.15,28.23-59.91,57.09-119.81,103.06-169.52,52.02-56.28,101.72-114.75,153.24-171.5,20.12-22.15,34.73-45.7,30.94-78.78ZM549.02,156.33c-25.63,43.26-49.31,78.14-67.88,115.58-45.06,90.98-96.52,178.98-130.85,275.1-7.6,21.29-11.76,47.14-26.57,61.61-15.4,15.05-13.7,26.6-11.33,43.17,2.72,18.92,3.38,38.17,3.87,57.33,2.83,109.85,5.06,219.71,8.31,329.56.51,17.08,5.27,34.03,8.37,52.85,25.37-1.66,45.6-3.94,65.85-4.08,18.29-.16,24.49-10.71,27-26.07,3.7-22.52,8.16-44.96,10.87-67.59,4.53-38.11,7.23-76.43,12.31-114.44,1.15-8.63,6.85-19.78,13.88-23.96,37.74-22.34,79.04-35.23,122.85-38.65,31.74-2.51,63.83-6.32,95.4-4.15,27.21,1.86,54.29,10.07,80.54,18.28,7.68,2.4,17.37,14.34,17.59,22.09,1.46,57.24.7,114.52.75,171.78,0,9.62.35,19.22.5,26.6,54.24,1.97,104.66,3.79,155.79,5.65-.26-7.27-.08-11.04-.54-14.73-10.39-86.4-21.46-172.59-7.87-259.89,8.64-55.48,13.29-111.58,21.42-167.12,3.03-20.6-3.03-33.9-19.43-45.54-14.49-10.29-28.92-21.46-40.62-34.69-93.12-105.42-185.4-211.63-278.46-317.1-17.53-19.9-37.53-37.58-61.72-61.59Z"/>
</svg>